<?xml version="1.0" standalone="no"?>
<!DOCTYPE svg PUBLIC "-//W3C//DTD SVG 20010904//EN"
 "http://www.w3.org/TR/2001/REC-SVG-20010904/DTD/svg10.dtd">
<svg version="1.0" xmlns="http://www.w3.org/2000/svg"
 width="290.000000pt" height="117.000000pt" viewBox="0 0 290.000000 117.000000"
 preserveAspectRatio="xMidYMid meet">
<metadata>
Created by potrace 1.15, written by Peter Selinger 2001-2017
</metadata>
<g transform="translate(0.000000,117.000000) scale(0.100000,-0.100000)"
fill="#000000" stroke="none">
<path d="M1535 1155 c-5 -2 -45 -11 -87 -20 l-78 -16 0 -83 0 -83 100 20 100
20 0 83 c0 83 -3 90 -35 79z"/>
<path d="M695 1054 c-33 -8 -70 -16 -83 -19 l-23 -6 3 -342 c3 -324 4 -344 23
-377 48 -81 153 -117 264 -90 l51 12 0 84 0 83 -49 -6 c-41 -5 -52 -2 -70 16
-20 20 -21 31 -21 171 l0 150 70 0 70 0 0 85 0 85 -70 0 -70 0 0 85 c0 97 6
92 -95 69z"/>
<path d="M238 907 c-109 -31 -168 -104 -168 -205 0 -105 39 -149 177 -202 96
-37 120 -58 103 -90 -11 -21 -17 -22 -84 -18 -46 4 -91 14 -129 31 l-57 26 0
-99 0 -99 58 -18 c36 -11 91 -17 152 -18 85 0 101 3 153 28 78 39 110 87 115
173 3 50 0 72 -18 108 -25 52 -58 76 -173 120 -89 35 -109 54 -87 81 12 15 26
17 82 12 37 -3 88 -15 114 -26 26 -12 48 -21 51 -21 2 0 2 44 1 97 l-3 97 -45
13 c-68 20 -188 25 -242 10z"/>
<path d="M1901 908 c-19 -5 -44 -16 -55 -24 -26 -18 -36 -18 -36 1 0 12 -17
15 -90 15 l-90 0 0 -451 c0 -424 1 -450 18 -445 9 3 54 13 100 22 l82 17 0
104 0 104 33 -18 c22 -12 55 -18 103 -18 61 0 77 4 120 30 64 40 108 107 128
194 39 172 2 330 -99 419 -63 56 -136 73 -214 50z m72 -198 c43 -37 62 -100
54 -175 -12 -115 -86 -172 -167 -130 l-30 16 0 138 c0 119 2 140 18 153 41 36
82 36 125 -2z"/>
<path d="M2485 911 c-123 -32 -204 -132 -224 -277 -26 -185 40 -335 174 -396
67 -30 224 -32 300 -2 l50 20 3 83 c3 83 3 84 -20 76 -125 -38 -179 -42 -238
-19 -37 15 -70 54 -70 84 0 6 63 10 186 10 l186 0 -5 98 c-6 115 -17 154 -60
218 -56 83 -184 131 -282 105z m106 -171 c21 -12 49 -60 49 -85 0 -12 -16 -15
-94 -15 l-95 0 10 33 c17 61 79 94 130 67z"/>
<path d="M1202 890 c-28 -17 -33 -18 -38 -5 -5 12 -25 15 -95 15 l-89 0 0
-335 0 -335 100 0 100 0 2 226 3 227 27 20 c18 14 42 20 73 19 l45 0 0 94 0
94 -47 0 c-30 0 -60 -8 -81 -20z"/>
<path d="M1370 565 l0 -335 100 0 100 0 0 335 0 335 -100 0 -100 0 0 -335z"/>
</g>
</svg>
